<svg xmlns="http://www.w3.org/2000/svg" viewBox="0 0 32 32" fill="none">
  <defs>
    <linearGradient id="grad" x1="0%" y1="0%" x2="100%" y2="100%">
      <stop offset="0%" style="stop-color:#6366f1"/>
      <stop offset="100%" style="stop-color:#a855f7"/>
    </linearGradient>
  </defs>
  <rect width="32" height="32" rx="8" fill="url(#grad)"/>
  <path d="M16 8l2.5 3.5L22 13l-3.5 2.5L16 19l-2.5-3.5L10 13l3.5-2.5L16 8z" fill="white" opacity="0.9"/>
  <path d="M20 16l1.5 2L24 19.5l-2.5 1.5L20 23l-1.5-2L16 19.5l2.5-1.5L20 16z" fill="white" opacity="0.6"/>
  <path d="M11 18l1 1.5L14 20.5l-2 1L11 23l-1-1.5L8 20.5l2-1L11 18z" fill="white" opacity="0.4"/>
</svg>
